<svg id="Layer_1" height="512" viewBox="0 0 150 150" width="512" xmlns="http://www.w3.org/2000/svg" data-name="Layer 1"><circle cx="75" cy="75" fill="#334d5c" r="64"/><ellipse cx="54.523" cy="92.502" fill="#dc8744" rx="24.523" ry="7.86"/><path d="m32.467 81.35v7.209c0 3.375 9.875 6.111 22.056 6.111s22.055-2.736 22.055-6.111v-7.209z" fill="#f7be56"/><ellipse cx="54.523" cy="81.683" fill="#fcd462" rx="22.056" ry="6.111"/><path d="m84.91 71.1-.757 2.612-.753 2.615c11.854 3.092 27.653 10.88 34.508 10l.757-2.613.757-2.612c-5.322-4.41-22.843-6.276-34.512-10.002z" fill="#e56353"/><path d="m115.471 83.391c-.86 2.97-.962 5.55-.228 5.763l1.15.333c.734.213 2.028-2.022 2.888-4.992s.963-5.55.228-5.763l-1.149-.332c-.735-.214-2.028 2.021-2.889 4.991z" fill="#d15241"/><path d="m54.441 67.046 28.978 9.198 1.491-5.142-29.407-7.722z" fill="#e56353"/><g fill="#d15241"><path d="m82.489 73.833c-.861 2.97-.963 5.55-.228 5.763l.345.1c.735.213 2.028-2.022 2.889-4.992s.963-5.55.228-5.763l-.345-.1c-.735-.213-2.028 2.022-2.889 4.992z"/><path d="m53.619 55.256-1.335.996 16.038 4.647-.648-1.57"/><path d="m68.961 53.5-13.261-3.844a.442.442 0 0 0 -.548.3l-.417 1.444 14.109 4.09.419-1.444a.442.442 0 0 0 -.302-.546z"/><path d="m67.369 61.3-14.494-4.2a.458.458 0 0 0 -.58.292l-.678 2.339 15.408 4.469.678-2.339a.46.46 0 0 0 -.334-.561z"/></g><rect fill="#ce412d" height="16.916" rx=".437" transform="matrix(.278 -.96 .96 .278 -13.666 100.542)" width="1.945" x="59.101" y="50.907"/><path d="m67.674 59.329-14.055-4.073c.918-1.878-.481-3.764 1.28-4.418l14.055 4.073c1.135 1.489-1.054 2.339-1.28 4.418z" fill="#e56353"/><path d="m62.266 78.184 1.335-.996-16.037-4.647.647 1.57" fill="#d15241"/><path d="m46.924 79.942 13.26 3.842a.442.442 0 0 0 .548-.3l.419-1.444-14.11-4.09-.418 1.444a.442.442 0 0 0 .301.548z" fill="#d15241"/><path d="m48.776 71.245 14.494 4.2c.252.073.252.838.32.6l.678-2.339-15.408-4.462-.677 2.339c-.068.235.34-.411.593-.338z" fill="#d15241"/><rect fill="#ce412d" height="16.916" rx=".437" transform="matrix(.278 -.96 .96 .278 -30.871 107.063)" width="1.945" x="54.839" y="65.617"/><path d="m67.379 62.974-15.408-4.465a.436.436 0 0 0 -.541.3l-1.4 4.819 16.248 4.709 1.4-4.819a.437.437 0 0 0 -.299-.544z" fill="#ce412d"/><path d="m48.506 70.466 15.408 4.465a.438.438 0 0 0 .542-.3l1.4-4.819-16.251-4.707-1.4 4.819a.437.437 0 0 0 .301.542z" fill="#ce412d"/><path d="m48.211 74.111 14.055 4.073c-.918 1.878.482 3.764-1.28 4.418l-14.055-4.073c-1.131-1.494 1.056-2.339 1.28-4.418z" fill="#e56353"/><path d="m49.485 61.675h16.916v10.09h-16.916z" fill="#ebf0f3" transform="matrix(-.96 -.278 .278 -.96 95.025 146.931)"/></svg>